<svg id="Layer_1" data-name="Layer 1" xmlns="http://www.w3.org/2000/svg" xmlns:xlink="http://www.w3.org/1999/xlink" viewBox="0 0 50 50"><defs><style>.cls-1{fill:none;}.cls-12,.cls-2{fill:#fff;}.cls-2{stroke:#9e9e9e;stroke-miterlimit:10;}.cls-3{fill:#fcee21;}.cls-4{fill:#f7931e;}.cls-5{fill:#f15a24;}.cls-6{fill:#ed1c24;}.cls-7{fill:#0071bc;}.cls-8{fill:#29abe2;}.cls-9{fill:aqua;}.cls-10{opacity:0.44;}.cls-11{clip-path:url(#clip-path);}</style><clipPath id="clip-path"><rect class="cls-1" x="9" y="9" width="32" height="32"/></clipPath></defs><rect class="cls-2" x="1" y="1" width="48" height="48" rx="2"/><rect class="cls-3" x="9" y="9" width="4.69" height="32"/><rect class="cls-4" x="13.55" y="9" width="4.69" height="32"/><rect class="cls-5" x="18.1" y="9" width="4.69" height="32"/><rect class="cls-6" x="22.66" y="9" width="4.69" height="32"/><rect class="cls-7" x="27.21" y="9" width="4.69" height="32"/><rect class="cls-8" x="31.76" y="9" width="4.69" height="32"/><rect class="cls-9" x="36.31" y="9" width="4.69" height="32"/><g class="cls-10"><g class="cls-11"><path class="cls-12" d="M25.65,23.6c4,4,.16,14.28-3.84,18.27s-3.37-6.6-7.37-10.59S.93,33.89,7.38,27.44c4-4,14.28-7.83,18.27-3.84"/><path class="cls-12" d="M39.16,23c-4,4-14.28.15-18.27-3.84-4.14-4.14,6.45-3.53,10.44-7.52S28.72-1.88,35.17,4.56c4.15,4.15,8,14.44,4,18.43"/><path class="cls-12" d="M39.93,36.5c-4-4-.15-14.28,3.84-18.27s3.38,6.6,7.37,10.59,13.51-2.61,7.06,3.84c-4,4.15-14.28,7.83-18.27,3.84"/><path class="cls-12" d="M26.42,37.27c4-4,14.28-.16,18.27,3.84s-6.6,3.37-10.59,7.37S36.71,62,30.26,55.54c-4-4-7.83-14.28-3.84-18.27"/></g></g><path class="cls-12" d="M34.75,16H15.25A2.25,2.25,0,0,0,13,18.25v13.5A2.25,2.25,0,0,0,15.25,34h19.5A2.25,2.25,0,0,0,37,31.75V18.25A2.25,2.25,0,0,0,34.75,16Zm-.28,15.75H15.53a.29.29,0,0,1-.28-.28V18.53a.29.29,0,0,1,.28-.28H34.47a.29.29,0,0,1,.28.28V31.47A.29.29,0,0,1,34.47,31.75ZM19,20.13A1.88,1.88,0,1,0,20.88,22,1.86,1.86,0,0,0,19,20.13ZM17.5,29.5h15V25.75l-4.1-4.1a.57.57,0,0,0-.8,0L22,27.25,20.15,25.4a.57.57,0,0,0-.8,0L17.5,27.25Z"/></svg>