<svg id="Layer_1" data-name="Layer 1" xmlns="http://www.w3.org/2000/svg" viewBox="0 0 50 50"><defs><style>.cls-1{fill:#fff;stroke:#9e9e9e;stroke-miterlimit:10;}.cls-2{fill:#9e9e9e;}.cls-3{fill:#a1a1a1;}</style></defs><rect class="cls-1" x="1" y="1" width="48" height="48" rx="2"/><path class="cls-2" d="M21.81,18.25H7.19A1.69,1.69,0,0,0,5.5,19.94V30.06a1.69,1.69,0,0,0,1.69,1.69H21.81a1.69,1.69,0,0,0,1.69-1.69V19.94A1.69,1.69,0,0,0,21.81,18.25ZM21.6,30.06H7.4a.21.21,0,0,1-.21-.21v-9.7a.21.21,0,0,1,.21-.21H21.6a.21.21,0,0,1,.21.21v9.7A.21.21,0,0,1,21.6,30.06ZM10,21.34a1.41,1.41,0,1,0,1.41,1.41A1.41,1.41,0,0,0,10,21.34Zm-1.13,7H20.12V25.56l-3.07-3.07a.42.42,0,0,0-.6,0l-4.2,4.2L10.86,25.3a.42.42,0,0,0-.6,0L8.87,26.69Z"/><rect class="cls-3" x="26.5" y="20.45" width="14.4" height="1.8"/><rect class="cls-3" x="26.5" y="27.95" width="8.36" height="1.8"/><rect class="cls-3" x="26.5" y="24.05" width="18" height="1.8"/></svg>