<svg id="Layer_1" data-name="Layer 1" xmlns="http://www.w3.org/2000/svg" viewBox="0 0 50 50"><defs><style>.cls-1{fill:#fff;stroke:#9e9e9e;stroke-miterlimit:10;}.cls-2{fill:#9e9e9e;}.cls-3{fill:#e0e0e0;}</style></defs><rect class="cls-1" x="1" y="1" width="48" height="48" rx="2"/><rect class="cls-2" x="22" y="5.4" width="6" height="6"/><rect class="cls-2" x="14.5" y="5.4" width="6" height="6"/><rect class="cls-2" x="29.5" y="5.4" width="6" height="6"/><path class="cls-3" d="M34.75,16H15.25A2.25,2.25,0,0,0,13,18.25v13.5A2.25,2.25,0,0,0,15.25,34h19.5A2.25,2.25,0,0,0,37,31.75V18.25A2.25,2.25,0,0,0,34.75,16Zm-.28,15.75H15.53a.29.29,0,0,1-.28-.28V18.53a.29.29,0,0,1,.28-.28H34.47a.29.29,0,0,1,.28.28V31.47A.29.29,0,0,1,34.47,31.75ZM19,20.13A1.88,1.88,0,1,0,20.88,22,1.86,1.86,0,0,0,19,20.13ZM17.5,29.5h15V25.75l-4.1-4.1a.57.57,0,0,0-.8,0L22,27.25,20.15,25.4a.57.57,0,0,0-.8,0L17.5,27.25Z"/></svg>