<?xml version="1.0" encoding="utf-8"?>
<!-- Generator: Adobe Illustrator 24.2.3, SVG Export Plug-In . SVG Version: 6.00 Build 0)  -->
<svg version="1.1" id="Layer_1" xmlns="http://www.w3.org/2000/svg" xmlns:xlink="http://www.w3.org/1999/xlink" x="0px" y="0px"
	 viewBox="0 0 64 32" style="enable-background:new 0 0 64 32;" xml:space="preserve">
<g>
	<path d="M0.9,0.1h5c0.4,4.2,0.8,7,1.3,8.4C7.6,10,8,10.7,8.4,10.7c0.1,0,0.3-0.1,0.4-0.2c-0.5,0.9-1.1,2.3-1.9,4.1
		c-0.1,0.1-0.2,0.3-0.4,0.5c-0.2,0.2-0.4,0.3-0.6,0.3H2.7C2.4,13.1,2,10.6,1.5,7.8C1,5,0.4,2.7,0,0.8c0-0.1,0.1-0.2,0.4-0.4
		S0.8,0.1,0.9,0.1z M9,0.1h5c0,0.3,0.1,0.8,0.1,1.5c0.1,0.7,0.1,1.3,0.2,1.9c0.1,0.6,0.1,1.2,0.2,2c0.1,0.8,0.2,1.4,0.3,2
		C14.8,8,14.9,8.6,15,9.1c0.3,1.1,0.6,1.6,1,1.6c0.1,0,0.3-0.1,0.4-0.2c-0.6,1.1-1.2,2.5-1.9,4.1c-0.1,0.1-0.2,0.3-0.4,0.5
		c-0.2,0.2-0.4,0.3-0.6,0.3h-3.3c-0.2-2.2-0.5-4.7-0.9-7.4C9,5.2,8.5,2.8,8,0.8c0-0.1,0.1-0.2,0.4-0.4S8.8,0.1,9,0.1z M17.3,2.1
		l0-1.3c0-0.1,0.1-0.2,0.4-0.4c0.2-0.2,0.5-0.3,0.6-0.3h3.6c-0.9,1.5-2.4,4.4-4.5,8.9c-0.1,0.1-0.2,0.3-0.4,0.5
		c-0.2,0.2-0.4,0.3-0.6,0.3C17,7.3,17.3,4.8,17.3,2.1z"/>
	<path d="M22.3,15.3c0.7-2.8,1.1-6.2,1.5-10.4c0-0.1,0.1-0.2,0.4-0.4s0.5-0.3,0.6-0.3h4.7C28.9,7,28.4,10.5,28,14.6
		c0,0.1-0.1,0.2-0.4,0.4c-0.2,0.2-0.4,0.3-0.6,0.3H22.3z M28.9,2.7h-4.7c0.1-0.6,0.2-1.1,0.3-1.7c0-0.1,0.1-0.3,0.4-0.5
		c0.2-0.2,0.4-0.3,0.6-0.3h4.7c-0.1,0.4-0.2,0.9-0.3,1.7c0,0.1-0.1,0.3-0.4,0.4C29.3,2.6,29.1,2.7,28.9,2.7z"/>
	<path d="M36.6,15.3h-4.7c0.8-3.3,1.3-6.7,1.6-10.4c0-0.1,0.1-0.2,0.4-0.4c0.2-0.2,0.5-0.3,0.8-0.3c0.3,0,0.9-0.1,2-0.2
		c1-0.1,1.8-0.1,2.4-0.1c-0.6,3.1-1.1,6.7-1.4,10.7c0,0.1-0.1,0.2-0.4,0.4C37,15.2,36.8,15.3,36.6,15.3z M40.7,15.5
		c-0.4-0.4-0.7-1-0.7-1.6s0.2-1.9,0.5-3.8c0.3-1.9,0.5-3,0.5-3.4c0-0.4-0.1-0.7-0.3-0.9c-0.2-0.2-0.5-0.3-0.8-0.3
		c0.1-0.4,0.2-0.8,0.4-1C40.5,4.3,41,4.2,41.6,4c0.6-0.1,1.1-0.2,1.7-0.2c1,0,1.7,0.2,2.2,0.7C46,5,46.2,5.7,46.2,6.7
		c0,0.6-0.1,1.5-0.4,2.9s-0.4,2.2-0.4,2.6s0,0.6,0,0.7c0,0.2,0,0.3,0.1,0.4c0,0.1,0.1,0.2,0.2,0.3c0.1,0.1,0.1,0.2,0.2,0.2
		c0,0,0.1,0.1,0.2,0.2c0.1,0.1,0.2,0.2,0.2,0.2c0,0.1-0.1,0.3-0.3,0.5c-0.2,0.2-0.4,0.4-0.6,0.5C44.5,15.4,42.9,15.5,40.7,15.5z"/>
	<path d="M57.6,4c-0.9,0.6-1.7,1.5-2.2,2.5c-0.5,1-0.8,2.1-0.8,3.3s0.4,2.1,1.3,2.9s2.2,1.1,3.9,1.1c0.5,0,1,0,1.5-0.1
		c-0.4,0.6-1,1-2,1.4c-1,0.4-2.1,0.6-3.2,0.6s-2-0.1-2.8-0.3c-0.8-0.2-1.5-0.5-2.1-1c-0.6-0.4-1.1-1-1.4-1.7
		c-0.4-0.7-0.5-1.5-0.5-2.3c0-0.8,0.1-1.6,0.4-2.3s0.6-1.3,1.1-1.8s1-0.9,1.6-1.3c1.2-0.7,2.6-1,4.2-1C56.9,3.9,57.3,3.9,57.6,4z
		 M59.4,4.2c1,0.4,1.8,0.8,2.3,1.5c0.5,0.6,0.8,1.3,0.8,2c0,1-0.4,1.8-1.3,2.5s-2,1-3.5,1c-0.5,0-1-0.1-1.5-0.2
		c0.8-0.5,1.3-1.1,1.6-1.9c0.2-0.7,0.4-1.5,0.4-2.4c0-0.2,0-0.7-0.1-1.7c0-0.1,0.1-0.3,0.5-0.5C59,4.3,59.2,4.2,59.4,4.2z"/>
</g>
<g>
	<path d="M0.7,28.5V17.9h1.4v10.6H0.7z M1.5,28.5v-1.2h3.3c0.4,0,0.8-0.1,1.2-0.3c0.3-0.2,0.5-0.6,0.5-1.2c0-0.5-0.2-0.9-0.5-1.1
		c-0.3-0.2-0.7-0.3-1.2-0.3H1.5v-1.2h2.8c0.5,0,0.8-0.1,1.1-0.3c0.3-0.2,0.5-0.5,0.7-0.9c0.1-0.4,0.2-0.7,0.2-1.2
		c0-0.6-0.2-1-0.5-1.3c-0.3-0.2-0.8-0.4-1.4-0.4H1.5v-1.2h2.9c1.1,0,1.9,0.2,2.5,0.7c0.6,0.5,0.8,1.2,0.8,2.2c0,0.4-0.1,0.8-0.2,1.2
		S7.2,22.7,6.9,23c-0.3,0.3-0.6,0.6-1,0.8l-0.1-0.3c0.6,0.1,1.1,0.4,1.5,0.8c0.3,0.4,0.5,0.9,0.5,1.5c0,0.5-0.1,0.9-0.3,1.3
		c-0.2,0.4-0.5,0.7-1,1s-1,0.4-1.7,0.4H1.5z"/>
	<path d="M9.5,24.5c0-0.9,0.2-1.6,0.5-2.2c0.3-0.6,0.7-1.1,1.3-1.4c0.6-0.3,1.2-0.5,1.9-0.5s1.4,0.2,1.9,0.5c0.6,0.3,1,0.8,1.3,1.4
		c0.3,0.6,0.5,1.4,0.5,2.2c0,0.9-0.2,1.6-0.5,2.2c-0.3,0.6-0.7,1.1-1.3,1.4c-0.6,0.3-1.2,0.5-1.9,0.5c-0.7,0-1.4-0.2-1.9-0.5
		c-0.5-0.3-1-0.8-1.3-1.4C9.6,26.1,9.5,25.3,9.5,24.5z M10.8,24.5c0,1,0.2,1.7,0.6,2.2c0.4,0.5,1,0.7,1.7,0.7c0.7,0,1.3-0.2,1.7-0.7
		c0.4-0.5,0.6-1.2,0.6-2.2c0-1-0.2-1.7-0.6-2.2c-0.4-0.5-1-0.7-1.7-0.7c-0.7,0-1.3,0.2-1.7,0.7C11,22.7,10.8,23.5,10.8,24.5z"/>
	<path d="M22.4,28.7c-0.5,0-1-0.1-1.4-0.2s-0.8-0.3-1.2-0.5c-0.3-0.3-0.6-0.6-0.8-1.1c-0.2-0.5-0.3-1-0.3-1.7V23c0-0.2,0-0.5,0-0.8
		c0-0.3,0-0.6,0-0.9c0-0.3,0-0.5-0.1-0.7l0-0.1h1.4v4.6c0,0.6,0.1,1.1,0.3,1.5c0.2,0.3,0.5,0.6,0.8,0.7c0.4,0.1,0.8,0.2,1.3,0.2
		c0.3,0,0.6,0,1-0.1c0.3-0.1,0.6-0.1,0.9-0.2l-0.3,0.4c0-0.1-0.1-0.3-0.1-0.5c0-0.2,0-0.4,0-0.6V23c0-0.2,0-0.5,0-0.8s0-0.6,0-0.9
		c0-0.3,0-0.5-0.1-0.7l0-0.1h1.4v5.1c0,0.2,0,0.5,0,0.8c0,0.3,0,0.6,0,0.9s0,0.5,0.1,0.7l0,0.1c-0.3,0.1-0.6,0.2-1,0.3
		c-0.4,0.1-0.8,0.1-1.2,0.2C23,28.7,22.7,28.7,22.4,28.7z"/>
	<path d="M27.1,21.7v-1.2H32v1.2H27.1z M31.2,28.6c-0.7,0-1.2-0.1-1.6-0.3c-0.4-0.2-0.7-0.5-0.9-0.9c-0.2-0.4-0.3-0.9-0.3-1.4v-7.6
		h1.4v7.5c0,0.6,0.1,1,0.4,1.2c0.2,0.3,0.6,0.4,1.2,0.4c0.2,0,0.4,0,0.6-0.1c0.2,0,0.4-0.1,0.5-0.2h0.1v1.1
		c-0.1,0.1-0.3,0.1-0.6,0.2C31.7,28.6,31.5,28.6,31.2,28.6z"/>
	<path d="M34.9,19.1c-0.2,0-0.5-0.1-0.6-0.2c-0.2-0.2-0.3-0.4-0.3-0.6s0.1-0.5,0.3-0.6c0.2-0.2,0.4-0.2,0.6-0.2
		c0.3,0,0.5,0.1,0.6,0.2c0.2,0.2,0.3,0.4,0.3,0.6s-0.1,0.5-0.3,0.6C35.3,19,35.1,19.1,34.9,19.1z M34.2,28.5V23c0-0.2,0-0.5,0-0.8
		s0-0.6,0-0.9c0-0.3,0-0.5-0.1-0.7l0-0.1h1.4v8H34.2z"/>
	<path d="M43.3,31.9v-4l0.3,0.5c-0.2,0.1-0.4,0.1-0.8,0.2c-0.3,0.1-0.6,0.1-1,0.1c-1.3,0-2.3-0.4-3.1-1.1c-0.7-0.7-1.1-1.8-1.1-3.1
		c0-0.7,0.1-1.2,0.3-1.7c0.2-0.5,0.5-0.9,0.9-1.3c0.4-0.4,0.8-0.6,1.3-0.8c0.5-0.2,1.1-0.3,1.7-0.3c0.5,0,1,0.1,1.4,0.2
		c0.5,0.1,0.9,0.2,1.3,0.4l0,0.1c0,0.2-0.1,0.4-0.1,0.7s0,0.6,0,0.9c0,0.3,0,0.6,0,0.8v8.5H43.3z M43.3,27.9v-5.2c0-0.2,0-0.5,0-0.7
		c0-0.2,0-0.4,0.1-0.6l0.3,0.4c-0.2-0.1-0.5-0.1-0.7-0.2s-0.6-0.1-0.9-0.1c-0.9,0-1.7,0.3-2.2,0.8c-0.5,0.5-0.8,1.2-0.8,2.2
		c0,1,0.2,1.8,0.7,2.3c0.5,0.5,1.2,0.7,2.1,0.7c0.4,0,0.7,0,0.9-0.1c0.3-0.1,0.5-0.1,0.6-0.2L43.3,27.9z"/>
	<path d="M50.8,28.7c-0.5,0-1-0.1-1.4-0.2s-0.8-0.3-1.2-0.5c-0.3-0.3-0.6-0.6-0.8-1.1c-0.2-0.5-0.3-1-0.3-1.7V23c0-0.2,0-0.5,0-0.8
		c0-0.3,0-0.6,0-0.9c0-0.3,0-0.5-0.1-0.7l0-0.1h1.4v4.6c0,0.6,0.1,1.1,0.3,1.5c0.2,0.3,0.5,0.6,0.8,0.7c0.4,0.1,0.8,0.2,1.3,0.2
		c0.3,0,0.6,0,1-0.1c0.3-0.1,0.6-0.1,0.9-0.2l-0.3,0.4c0-0.1-0.1-0.3-0.1-0.5c0-0.2,0-0.4,0-0.6V23c0-0.2,0-0.5,0-0.8s0-0.6,0-0.9
		c0-0.3,0-0.5-0.1-0.7l0-0.1h1.4v5.1c0,0.2,0,0.5,0,0.8c0,0.3,0,0.6,0,0.9s0,0.5,0.1,0.7l0,0.1c-0.3,0.1-0.6,0.2-1,0.3
		c-0.4,0.1-0.8,0.1-1.2,0.2C51.4,28.7,51.1,28.7,50.8,28.7z"/>
	<path d="M60.4,28.6c-0.7,0-1.4-0.1-1.9-0.3c-0.6-0.2-1-0.4-1.4-0.8c-0.4-0.4-0.6-0.8-0.8-1.3c-0.2-0.5-0.3-1.1-0.3-1.8
		c0-0.8,0.2-1.6,0.5-2.2c0.3-0.6,0.7-1.1,1.3-1.4c0.6-0.3,1.2-0.5,1.9-0.5c0.9,0,1.6,0.2,2.1,0.5c0.5,0.4,0.9,0.8,1.1,1.5
		c0.2,0.6,0.3,1.4,0.3,2.2l0,0.4h-6.3v-1.1h4.9v-0.1c0-0.7-0.2-1.3-0.5-1.7c-0.4-0.4-0.9-0.6-1.6-0.6c-0.4,0-0.8,0.1-1.1,0.3
		c-0.4,0.2-0.6,0.5-0.9,0.9c-0.2,0.4-0.3,1-0.3,1.7v0.1c0,0.8,0.1,1.3,0.4,1.8s0.6,0.7,1.1,0.9c0.5,0.2,1,0.3,1.6,0.3
		c0.5,0,0.9,0,1.3-0.1c0.4-0.1,0.6-0.2,0.8-0.3h0.1v1.2c-0.2,0.1-0.5,0.2-0.9,0.3C61.4,28.6,60.9,28.6,60.4,28.6z"/>
</g>
</svg>
